<?xml version="1.0" standalone="no"?>
<!DOCTYPE svg PUBLIC "-//W3C//DTD SVG 20010904//EN"
 "http://www.w3.org/TR/2001/REC-SVG-20010904/DTD/svg10.dtd">
<svg version="1.0" xmlns="http://www.w3.org/2000/svg"
 width="500.000000pt" height="500.000000pt" viewBox="0 0 500.000000 500.000000"
 preserveAspectRatio="xMidYMid meet">
<metadata>
Created by potrace 1.10, written by Peter Selinger 2001-2011
</metadata>
<g transform="translate(0.000000,500.000000) scale(0.050000,-0.050000)"
fill="#004aad" stroke="none">
<path d="M4258 8355 c-126 -113 -493 -439 -818 -725 -995 -877 -1502 -1335
-1495 -1354 13 -41 227 -274 247 -270 13 2 318 265 678 584 1298 1149 1620
1430 1634 1425 15 -5 844 -734 1487 -1307 221 -197 495 -439 608 -538 l207
-179 127 139 c156 172 167 131 -98 363 -124 108 -360 318 -525 467 -165 149
-556 497 -870 773 -313 277 -651 576 -750 664 -99 89 -186 162 -192 162 -7 1
-115 -91 -240 -204z"/>
<path d="M2700 7758 l0 -482 202 187 c111 103 250 232 309 287 l108 100 5 190
4 190 -314 6 -314 5 0 -483z"/>
<path d="M4198 7414 c-161 -145 -564 -502 -895 -794 l-603 -530 0 -1184 c0
-1151 1 -1185 39 -1205 24 -13 254 -21 610 -21 l571 0 0 520 c0 670 -68 600
580 600 648 0 580 70 580 -600 l0 -520 579 0 c499 0 582 4 610 31 27 28 31
165 31 1200 l0 1167 -95 88 c-52 49 -329 294 -615 545 -286 251 -648 572 -805
713 -157 141 -287 256 -290 255 -3 0 -137 -120 -297 -265z m669 -384 c428 -90
753 -411 753 -742 l0 -48 -340 0 c-310 0 -340 3 -340 35 -1 258 -567 348 -774
122 -147 -159 -168 -680 -36 -880 135 -205 544 -237 733 -57 142 136 117 160
-163 160 -214 0 -240 4 -243 35 -9 104 -10 321 -2 360 l9 45 578 0 579 0 -6
-605 -5 -605 -179 0 -179 0 -30 95 c-34 112 -34 112 -155 35 -415 -263 -1142
-209 -1458 109 -318 319 -386 1057 -137 1485 223 384 817 579 1395 456z"/>
<path d="M2521 3285 c-192 -97 -202 -461 -16 -558 77 -40 248 -43 338 -6 49
21 66 21 72 3 5 -13 30 -24 57 -24 47 0 48 4 48 170 l0 170 -160 0 -160 0 0
-60 c0 -53 7 -60 60 -60 60 0 84 -43 39 -71 -114 -70 -228 12 -228 163 0 160
149 238 244 128 53 -62 213 -58 194 5 -47 154 -310 230 -488 140z"/>
<path d="M3292 3226 c-20 -53 -72 -193 -114 -311 l-77 -215 97 0 c81 0 99 7
108 40 9 34 27 40 124 40 97 0 115 -6 124 -40 9 -34 27 -40 116 -40 l106 0
-60 165 c-33 91 -85 228 -114 305 l-54 140 -110 6 -109 6 -37 -96z m166 -131
c55 -146 50 -175 -29 -175 -54 0 -71 7 -63 28 6 15 22 65 36 110 28 95 33 98
56 37z"/>
<path d="M3945 3290 c-180 -78 -116 -300 102 -351 147 -35 181 -55 152 -90
-36 -43 -134 -36 -164 11 -35 57 -195 58 -195 1 0 -116 202 -199 387 -157 235
53 240 319 7 366 -124 25 -194 53 -194 79 0 60 129 68 165 11 42 -68 180 -57
171 14 -14 124 -260 190 -431 116z"/>
<path d="M4520 3010 l0 -310 231 0 c253 0 335 24 356 104 22 82 14 117 -38
169 -52 51 -52 51 -10 80 25 18 41 51 41 86 0 149 -64 181 -359 181 l-221 0 0
-310z m386 145 c19 -55 -26 -95 -107 -95 -74 0 -79 3 -79 60 0 65 164 96 186
35z m4 -265 c0 -34 -15 -41 -95 -46 -91 -6 -95 -4 -95 46 0 50 4 52 95 46 80
-5 95 -12 95 -46z"/>
<path d="M5227 3290 c-20 -53 5 -417 32 -474 70 -144 413 -167 531 -36 35 38
41 78 47 292 l6 248 -91 0 -92 0 0 -207 c0 -233 -20 -273 -136 -273 -88 0
-104 43 -104 279 l0 201 -91 0 c-62 0 -94 -9 -102 -30z"/>
<path d="M6000 3010 l0 -310 80 0 80 0 0 140 c0 77 8 140 17 140 10 0 70 -63
134 -140 112 -134 121 -140 203 -140 l86 0 0 310 0 310 -89 0 -89 0 -6 -151
-6 -150 -126 150 c-117 141 -130 151 -205 151 l-79 0 0 -310z"/>
</g>
</svg>
